grf
version=1
nRows=18
nColumns=19
inDegrees=no
endheader
time	ground_force_1_vx	ground_force_1_vy	ground_force_1_vz	ground_force_1_px	ground_force_1_py	ground_force_1_pz	ground_moment_1_mx	ground_moment_1_my	ground_moment_1_mz	ground_force_2_vx	ground_force_2_vy	ground_force_2_vz	ground_force_2_px	ground_force_2_py	ground_force_2_pz	ground_moment_2_mx	ground_moment_2_my	ground_moment_2_mz
      0.00000000	     -2.10934353	    385.31970215	    -43.38082886	    136.86184406	      0.00000000	  -1032.14992750	      0.00000000	   3955.99837508	      0.00000000	    -12.78188515	    404.16641235	     55.45361328	    161.46915532	      0.00000000	  -1417.15044430	      0.00000000	  -4258.18127205	      0.00000000
      0.01000000	     -1.01741076	    377.34030151	    -41.96779251	    132.41029904	      0.00000000	  -1030.94349044	      0.00000000	   4037.17113371	      0.00000000	    -10.92893410	    418.33529663	     55.45350647	    163.67889236	      0.00000000	  -1421.17747119	      0.00000000	  -4134.59883934	      0.00000000
      0.02000000	     -0.44257337	    371.42050171	    -44.18694305	    129.70824162	      0.00000000	  -1036.70808113	      0.00000000	   4145.87022542	     -0.00000000	     -8.91447449	    408.11999512	     56.49893951	    159.53640499	      0.00000000	  -1417.02344078	      0.00000000	  -4268.75862897	      0.00000000
      0.03000000	     -0.76491147	    380.51004028	    -44.95312119	    135.73405625	      0.00000000	  -1034.95264751	      0.00000000	   3878.45633427	      0.00000000	     -7.02190590	    421.00207520	     56.41777039	    156.40868077	      0.00000000	  -1417.09558812	      0.00000000	  -4416.20136835	      0.00000000
      0.04000000	      1.01536584	    364.56488037	    -45.91451263	    124.62895106	      0.00000000	  -1036.22678838	      0.00000000	   4383.85119022	      0.00000000	     -4.64535952	    421.30804443	     54.56521606	    155.98501815	      0.00000000	  -1418.74954695	      0.00000000	  -4077.09175082	      0.00000000
      0.05000000	      4.79502106	    377.02673340	    -44.86694336	    130.95514283	      0.00000000	  -1031.40907394	      0.00000000	   3606.89883555	      0.00000000	     -2.83340740	    426.87280273	     55.53181458	    154.39029497	      0.00000000	  -1419.29693830	      0.00000000	  -4391.03915747	      0.00000000
      0.06000000	      3.73420453	    386.32723999	    -43.61526489	    129.99667892	      0.00000000	  -1034.69620183	      0.00000000	   3740.42686700	     -0.00000000	     -2.06768322	    415.55642700	     54.20324707	    152.45076219	      0.00000000	  -1416.01463411	      0.00000000	  -4228.66902540	      0.00000000
      0.07000000	      4.46545601	    372.59774780	    -42.81172943	    121.12944773	      0.00000000	  -1040.36082938	      0.00000000	   4113.44335645	      0.00000000	     -1.30320072	    410.92565918	     52.11153793	    151.02698498	      0.00000000	  -1413.30474336	      0.00000000	  -4228.91687055	      0.00000000
      0.08000000	      8.30163765	    388.58163452	    -44.37957764	    127.01286841	      0.00000000	  -1035.61409162	      0.00000000	   4483.08516587	      0.00000000	     -0.17483902	    419.67596436	     50.62297058	    149.85633840	      0.00000000	  -1415.48203912	      0.00000000	  -4079.54694641	      0.00000000
      0.09000000	      8.03552055	    391.62808228	    -43.45530701	    125.63484635	      0.00000000	  -1036.32150722	      0.00000000	   3822.47080455	      0.00000000	      0.91155958	    415.69778442	     50.78339386	    151.47761610	      0.00000000	  -1417.14340380	      0.00000000	  -4086.38722031	      0.00000000
      0.10000000	      8.84878254	    390.35266113	    -42.89135742	    123.03577991	      0.00000000	  -1040.24566377	      0.00000000	   3826.28910180	      0.00000000	      0.79201365	    434.02682495	     49.17487717	    154.26804448	      0.00000000	  -1422.47791989	      0.00000000	  -3717.57098565	      0.00000000
      0.11000000	     10.71411419	    397.75323486	    -39.70239258	    121.68910951	      0.00000000	  -1034.38704307	      0.00000000	   3291.02210655	      0.00000000	      2.68347931	    412.96810913	     48.28923798	    147.79609846	      0.00000000	  -1416.99492002	      0.00000000	  -4076.97550555	      0.00000000
      0.12000000	     10.67424965	    377.60476685	    -42.28583527	    112.54032363	      0.00000000	  -1048.11057924	      0.00000000	   4221.16001221	      0.00000000	      3.40889359	    417.75170898	     46.03529739	    148.11334142	      0.00000000	  -1416.44928719	      0.00000000	  -3708.54544533	      0.00000000
      0.13000000	     10.91381645	    393.57730103	    -39.98822784	    121.08654403	      0.00000000	  -1042.15044374	      0.00000000	   3709.62990711	      0.00000000	      4.57687569	    406.44247437	     47.08412170	    146.75417071	      0.00000000	  -1416.18446789	      0.00000000	  -4127.34990712	      0.00000000
      0.14000000	      9.49384022	    394.38101196	    -39.90930176	    120.43917648	      0.00000000	  -1039.37719662	      0.00000000	   3800.61011024	      0.00000000	      7.03155565	    416.45962524	     45.03129578	    145.79956711	      0.00000000	  -1414.26074358	      0.00000000	  -4141.63356294	      0.00000000
      0.15000000	      9.61571503	    390.49655151	    -39.67252350	    121.73991995	      0.00000000	  -1047.61069167	      0.00000000	   4002.45143090	      0.00000000	      8.40066528	    415.03451538	     45.75184631	    147.75284759	      0.00000000	  -1413.88559801	      0.00000000	  -3827.03179358	      0.00000000
      0.16000000	      9.16959953	    407.82870483	    -40.60100174	    121.32214013	      0.00000000	  -1037.41141796	      0.00000000	   4081.14990151	     -0.00000000	      7.95768547	    419.49743652	     44.26645660	    149.35178878	      0.00000000	  -1418.83422779	      0.00000000	  -3859.21604803	      0.00000000
      0.17000000	      9.53522491	    397.53265381	    -39.47193146	    122.53305738	      0.00000000	  -1046.94641216	      0.00000000	   3956.50981561	     -0.00000000	      9.04684353	    421.72320557	     45.55072784	    148.02058542	      0.00000000	  -1418.46986351	      0.00000000	  -3552.71692716	      0.00000000
